<svg width="64" height="64" viewBox="0 0 64 64" fill="none" xmlns="http://www.w3.org/2000/svg">
  <defs>
    <linearGradient id="mechaOrange" x1="10" y1="10" x2="54" y2="54" gradientUnits="userSpaceOnUse">
      <stop offset="0%" stopColor="#FF8F4D" />
      <stop offset="100%" stopColor="#FF7026" />
    </linearGradient>
    <linearGradient id="mechaWhite" x1="16" y1="12" x2="48" y2="48" gradientUnits="userSpaceOnUse">
      <stop offset="0%" stopColor="#FFFFFF" />
      <stop offset="100%" stopColor="#EDECE8" />
    </linearGradient>
    <linearGradient id="mechaCharcoal" x1="16" y1="24" x2="48" y2="34" gradientUnits="userSpaceOnUse">
      <stop offset="0%" stopColor="#24252C" />
      <stop offset="100%" stopColor="#141418" />
    </linearGradient>
    <linearGradient id="mechaCyan" x1="20" y1="26" x2="44" y2="30" gradientUnits="userSpaceOnUse">
      <stop offset="0%" stopColor="#00F5FF" />
      <stop offset="100%" stopColor="#00B8D9" />
    </linearGradient>
  </defs>

  <rect width="64" height="64" fill="#FFFFFF" rx="8" />

  <rect x="14" y="52" width="36" height="8" rx="1.5" fill="url(#mechaWhite)" stroke="#D0C9C3" strokeWidth="0.8" />
  <rect x="12" y="52" width="6" height="6" rx="1" fill="url(#mechaOrange)" />
  <rect x="46" y="52" width="6" height="6" rx="1" fill="url(#mechaOrange)" />
  <rect x="28" y="54" width="8" height="3" rx="0.5" fill="url(#mechaCyan)" />

  <rect x="25" y="46" width="14" height="6" rx="1" fill="url(#mechaCharcoal)" />
  <line x1="27" y1="49" x2="37" y2="49" stroke="#3A3C46" strokeWidth="1" />

  <rect x="6" y="21" width="7" height="18" rx="1" fill="url(#mechaCharcoal)" />
  <rect x="8" y="24" width="3" height="12" rx="0.5" fill="url(#mechaOrange)" />

  <rect x="51" y="21" width="7" height="18" rx="1" fill="url(#mechaCharcoal)" />
  <rect x="53" y="24" width="3" height="12" rx="0.5" fill="url(#mechaOrange)" />

  <polygon
    points="16,13 48,13 51,16 51,43 47,47 17,47 13,43 13,16"
    fill="url(#mechaWhite)"
    stroke="#C8C2BC"
    strokeWidth="1"
  />

  <rect x="15" y="11" width="34" height="5" rx="1" fill="url(#mechaOrange)" />

  <rect x="15" y="18" width="5" height="26" fill="url(#mechaOrange)" />
  <rect x="44" y="18" width="5" height="26" fill="url(#mechaOrange)" />

  <rect
    x="19"
    y="23"
    width="26"
    height="11"
    rx="1"
    fill="url(#mechaCharcoal)"
  />

  <rect x="22" y="26" width="7" height="5" rx="0.8" fill="url(#mechaCyan)" />
  <rect x="35" y="26" width="7" height="5" rx="0.8" fill="url(#mechaCyan)" />

  <rect x="30.5" y="27.5" width="3" height="2" fill="#FFB74D" />

  <rect x="23" y="38" width="18" height="6" rx="0.5" fill="url(#mechaWhite)" stroke="#D0C9C3" strokeWidth="0.8" />
  <line x1="26" y1="41" x2="38" y2="41" stroke="#24252C" strokeWidth="1" />
</svg>
